<?xml version="1.0" standalone="no"?>
<!DOCTYPE svg PUBLIC "-//W3C//DTD SVG 20010904//EN"
 "http://www.w3.org/TR/2001/REC-SVG-20010904/DTD/svg10.dtd">
<svg version="1.0" xmlns="http://www.w3.org/2000/svg"
 width="200.000000pt" height="200.000000pt" viewBox="0 0 200.000000 200.000000"
 preserveAspectRatio="xMidYMid meet">

<g transform="translate(0.000000,200.000000) scale(0.100000,-0.100000)"
fill="#fff" stroke="none">
<path d="M1181 1811 c-7 -15 -23 -33 -37 -39 -29 -14 -30 -23 -4 -47 11 -10
20 -31 20 -47 0 -21 5 -28 19 -28 10 0 24 7 31 14 9 11 18 12 37 5 35 -13 44
-3 37 40 -4 24 -2 41 5 45 22 14 11 36 -18 36 -20 0 -34 8 -45 25 -21 32 -31
32 -45 -4z m41 -11 c8 -12 24 -20 40 -20 32 0 34 -6 13 -30 -12 -14 -13 -23
-5 -45 10 -27 10 -27 -23 -21 -25 5 -38 2 -47 -9 -19 -23 -30 -18 -30 15 0 19
-7 33 -20 40 -27 14 -25 27 5 34 15 4 27 16 31 31 7 30 20 32 36 5z"/>
<path d="M880 1801 c-13 -25 -4 -48 21 -56 26 -8 49 11 49 40 0 37 -52 49 -70
16z m56 -30 c-10 -16 -36 -13 -43 5 -8 22 18 37 36 20 7 -8 10 -19 7 -25z"/>
<path d="M445 1741 c-9 -29 -44 -61 -67 -61 -10 0 -18 -4 -18 -10 0 -5 6 -10
14 -10 20 0 66 -57 66 -83 1 -19 3 -17 14 8 17 38 44 62 76 67 24 5 24 5 -9
18 -23 9 -38 24 -51 53 -16 35 -19 37 -25 18z m29 -104 l-28 -24 -22 26 -23
26 26 27 25 27 25 -30 24 -29 -27 -23z"/>
<path d="M1494 1676 c-11 -28 1 -51 25 -51 32 0 49 28 32 49 -17 20 -50 21
-57 2z m44 -23 c-2 -10 -10 -18 -18 -18 -8 0 -16 8 -18 18 -2 12 3 17 18 17
15 0 20 -5 18 -17z"/>
<path d="M882 1650 c-34 -45 -75 -63 -131 -55 l-46 6 -67 -148 c-37 -81 -70
-156 -73 -165 -5 -12 4 -27 29 -49 20 -17 33 -35 30 -40 -3 -5 -34 -9 -69 -9
l-64 0 -6 -34 c-8 -40 -57 -94 -94 -102 -14 -3 -32 -7 -38 -10 -19 -5 -19
-363 0 -368 6 -3 25 -7 41 -11 38 -8 84 -58 92 -101 l6 -34 372 0 371 0 18 50
c19 54 47 78 100 89 l32 7 5 84 5 85 58 0 58 0 75 164 c70 153 73 164 57 177
-10 7 -21 14 -25 14 -19 1 -49 83 -46 127 l3 47 -335 153 c-184 84 -335 153
-336 153 0 0 -10 -13 -22 -30z m383 -162 c127 -58 242 -111 258 -118 24 -12
27 -19 27 -62 0 -55 18 -97 54 -126 l25 -19 -67 -145 -67 -145 -52 1 -51 0 -4
96 c-4 86 3 125 28 168 1 2 12 -1 23 -8 12 -6 21 -7 21 -2 0 7 -82 52 -95 52
-3 0 -5 -4 -5 -10 0 -5 6 -10 14 -10 26 0 27 -18 4 -64 -24 -51 -41 -53 -86
-12 -46 41 -54 78 -13 56 12 -6 21 -7 21 -2 0 5 -11 14 -25 20 -27 12 -30 19
-16 40 7 12 14 11 41 -3 17 -9 34 -14 38 -11 7 7 7 7 -42 29 -37 17 -39 17
-51 0 -15 -21 -80 -30 -90 -13 -4 7 -12 7 -26 0 -10 -6 -19 -7 -19 -2 0 4 23
16 50 26 28 10 50 22 50 27 0 13 -6 12 -52 -12 l-41 -21 7 39 c6 35 5 37 -9
19 -8 -11 -12 -28 -9 -39 4 -14 3 -17 -7 -12 -9 6 -11 4 -6 -7 4 -12 -2 -17
-21 -21 -15 -3 -29 -2 -32 3 -3 4 -16 11 -30 15 -37 11 -50 25 -50 51 0 46 62
73 90 39 7 -8 17 -15 23 -15 15 0 -22 38 -44 45 -29 9 -76 -21 -82 -52 -7 -33
16 -73 41 -73 15 0 15 -2 2 -10 -24 -15 -181 -12 -210 5 -33 19 -60 19 -60 0
0 -20 -46 -20 -62 1 -7 9 -26 30 -41 47 l-28 30 64 141 64 141 60 5 c60 5 104
26 125 59 13 21 -31 39 363 -141z m-30 -376 c22 -47 31 -56 75 -75 42 -18 50
-25 50 -48 0 -22 -4 -26 -20 -22 -11 3 -20 10 -20 15 0 6 -9 8 -20 5 -11 -3
-18 -1 -15 3 3 5 -1 12 -8 17 -18 10 -52 74 -49 91 2 7 -1 12 -5 11 -4 -1 -12
-1 -18 0 -5 1 -164 3 -352 4 -223 1 -343 -2 -344 -8 -1 -5 -1 -14 0 -19 1 -5
-2 -12 -6 -15 -5 -3 -16 -19 -26 -34 -19 -29 -72 -67 -94 -67 -7 0 -13 11 -13
25 0 14 6 25 13 25 7 0 32 12 54 27 38 24 63 59 77 104 4 15 40 16 350 15
l346 -1 25 -53z m-88 -28 c-3 -3 -12 -4 -19 -1 -8 3 -5 6 6 6 11 1 17 -2 13
-5z m-301 -32 c-154 -1 -283 1 -287 5 -5 5 121 6 279 3 l287 -5 -279 -3z m319
8 c-3 -5 -14 -10 -23 -10 -15 0 -15 2 -2 10 20 13 33 13 25 0z m-655 -30 c0
-5 -4 -10 -10 -10 -5 0 -10 5 -10 10 0 6 5 10 10 10 6 0 10 -4 10 -10z m395
-30 c3 -5 -1 -10 -10 -10 -9 0 -13 5 -10 10 3 6 8 10 10 10 2 0 7 -4 10 -10z
m242 4 c-3 -3 -12 -4 -19 -1 -8 3 -5 6 6 6 11 1 17 -2 13 -5z m-454 -11 c-7
-2 -21 -2 -30 0 -10 3 -4 5 12 5 17 0 24 -2 18 -5z m160 0 c-7 -2 -21 -2 -30
0 -10 3 -4 5 12 5 17 0 24 -2 18 -5z m114 1 c-3 -3 -12 -4 -19 -1 -8 3 -5 6 6
6 11 1 17 -2 13 -5z m110 0 c-3 -3 -12 -4 -19 -1 -8 3 -5 6 6 6 11 1 17 -2 13
-5z m-438 -20 c9 -8 -75 -3 -88 5 -8 5 5 7 35 4 27 -3 51 -7 53 -9z m242 -42
c-7 -2 -18 1 -23 6 -8 8 -4 9 13 5 13 -4 18 -8 10 -11z m179 8 c0 -5 -5 -10
-11 -10 -5 0 -7 5 -4 10 3 6 8 10 11 10 2 0 4 -4 4 -10z m-393 -6 c-3 -3 -12
-4 -19 -1 -8 3 -5 6 6 6 11 1 17 -2 13 -5z m110 0 c-3 -3 -12 -4 -19 -1 -8 3
-5 6 6 6 11 1 17 -2 13 -5z m483 -9 c7 -8 20 -15 29 -15 13 0 14 -2 1 -9 -10
-7 -18 -4 -28 10 -8 11 -21 18 -29 15 -8 -3 -11 -1 -8 4 9 14 21 12 35 -5z
m-538 -74 c-5 -66 -25 -63 -33 5 -3 27 -7 44 -7 37 -1 -6 -11 -9 -22 -6 -17 4
-19 0 -17 -36 0 -22 -2 -43 -5 -47 -14 -14 -28 9 -28 46 0 33 -3 38 -19 35
-13 -2 -18 2 -17 13 2 14 15 17 60 18 31 1 60 4 63 8 15 15 28 -23 25 -73z
m23 69 c3 -5 1 -10 -4 -10 -6 0 -11 5 -11 10 0 6 2 10 4 10 3 0 8 -4 11 -10z
m126 0 c5 0 9 -10 9 -22 0 -18 2 -20 9 -8 6 8 8 17 6 20 -2 3 10 6 26 7 27 2
28 0 18 -19 -9 -16 -8 -19 3 -14 7 4 5 1 -4 -6 -16 -11 -16 -14 3 -45 l21 -33
-26 2 c-14 1 -27 10 -29 20 -3 10 -10 18 -17 18 -6 0 -9 -4 -6 -8 2 -4 1 -14
-4 -21 -15 -26 -30 1 -30 55 0 30 -4 54 -9 54 -5 0 -8 -8 -7 -17 1 -12 -5 -17
-16 -15 -17 3 -22 -8 -19 -37 2 -7 -3 -10 -9 -6 -6 4 -8 15 -5 26 4 11 2 19
-5 19 -6 0 -10 -12 -8 -27 3 -25 7 -28 36 -25 39 4 46 -22 8 -32 -61 -15 -110
51 -71 94 16 18 73 31 103 23 8 -2 18 -3 23 -3z m284 -11 c4 -6 -2 -13 -14
-16 -17 -4 -21 -13 -21 -43 0 -21 6 -40 13 -43 6 -3 1 -5 -13 -4 -14 1 -28 6
-32 12 -5 7 -8 7 -8 0 0 -6 -24 -12 -54 -13 -65 -3 -73 6 -68 72 l4 46 93 0
c56 0 97 -4 100 -11z m55 -7 c0 -4 -9 -8 -20 -8 -11 0 -20 4 -20 8 0 4 9 8 20
8 11 0 20 -4 20 -8z m66 -22 c14 0 15 -3 6 -12 -7 -7 -12 -21 -12 -32 0 -17
-6 -21 -30 -21 -22 0 -30 5 -30 17 0 9 -4 20 -10 23 -15 9 -12 25 5 25 9 0 18
7 22 16 6 16 7 16 18 0 7 -9 20 -16 31 -16z m34 -40 c-16 -31 -23 -18 -8 15 7
15 14 23 16 17 2 -6 -2 -21 -8 -32z m-633 8 c-3 -8 -6 -5 -6 6 -1 11 2 17 5
13 3 -3 4 -12 1 -19z m513 -25 c0 -14 -3 -23 -7 -19 -10 10 -11 46 -1 46 4 0
8 -12 8 -27z m-167 -150 c-83 -2 -223 -2 -310 0 -87 1 -19 3 152 3 171 0 242
-2 158 -3z m-493 -47 c0 -11 -19 -15 -25 -6 -3 5 1 10 9 10 9 0 16 -2 16 -4z
m691 -19 c-10 -9 -11 -8 -5 6 3 10 9 15 12 12 3 -3 0 -11 -7 -18z"/>
<path d="M862 1518 c4 -11 580 -278 600 -278 5 0 8 5 6 12 -4 11 -579 278
-600 278 -5 0 -8 -5 -6 -12z"/>
<path d="M805 1426 c18 -13 18 -15 1 -57 -10 -24 -20 -50 -23 -56 -3 -7 -1
-13 4 -13 5 0 17 23 27 51 18 48 19 50 50 43 21 -4 28 -3 21 4 -5 6 -19 12
-30 14 -11 1 -26 9 -33 16 -7 6 -18 12 -25 12 -6 0 -2 -6 8 -14z"/>
<path d="M897 1325 c-30 -61 -31 -65 -18 -65 10 0 54 97 49 111 -2 6 -16 -15
-31 -46z"/>
<path d="M1015 890 c-22 -6 -25 -8 -9 -9 12 0 27 -8 34 -16 10 -12 9 -15 -6
-15 -11 0 -26 -5 -34 -11 -12 -8 -9 -10 12 -6 16 2 33 -2 39 -10 9 -10 15 -10
25 -2 16 13 19 69 5 69 -5 0 -15 2 -23 4 -7 2 -26 0 -43 -4z"/>
<path d="M466 1404 c-31 -30 -8 -69 36 -62 30 4 38 46 12 65 -23 17 -29 16
-48 -3z m47 -18 c8 -19 -15 -37 -32 -26 -17 10 -7 40 13 40 7 0 16 -6 19 -14z"/>
<path d="M1520 737 c-8 -18 -30 -39 -47 -47 l-33 -15 30 -13 c18 -8 34 -26 41
-47 l13 -34 18 30 c10 17 33 36 51 44 l32 13 -25 10 c-30 12 -44 27 -56 64
l-9 26 -15 -31z m33 -91 l-27 -23 -21 25 -22 26 26 22 26 22 22 -25 23 -24
-27 -23z"/>
<path d="M818 263 c7 -3 16 -2 19 1 4 3 -2 6 -13 5 -11 0 -14 -3 -6 -6z"/>
<path d="M1030 225 c-11 -13 -11 -18 0 -28 10 -9 11 -9 6 1 -4 7 -2 19 4 27 7
8 10 15 7 15 -2 0 -10 -7 -17 -15z"/>
<path d="M1083 225 c-3 -9 -3 -18 -1 -21 3 -3 8 4 11 16 6 23 -1 27 -10 5z"/>
<path d="M1141 214 c0 -11 3 -14 6 -6 3 7 2 16 -1 19 -3 4 -6 -2 -5 -13z"/>
<path d="M1181 204 c0 -11 3 -14 6 -6 3 7 2 16 -1 19 -3 4 -6 -2 -5 -13z"/>
</g>
</svg>
